<?xml version="1.0" encoding="utf-8"?>
<svg viewBox="0 0.392 185 185" xmlns="http://www.w3.org/2000/svg">
  <defs>
    <clipPath id="clip0_2891_2735">
      <rect width="138" height="76" fill="white" transform="translate(24 25.1958)"/>
    </clipPath>
  </defs>
  <rect y="0.392" width="185" height="185" fill="#222222" transform="matrix(0.9999999999999999, 0, 0, 0.9999999999999999, 0, -1.4210854715202004e-14)"/>
  <g clip-path="url(#clip0_2891_2735)" transform="matrix(0.9999999999999999, 0, 0, 0.9999999999999999, 0, -1.4210854715202004e-14)">
    <path d="M33.39 55.5558C32.29 55.5558 31.28 55.4258 30.36 55.1658C29.46 54.9058 28.66 54.5458 27.96 54.0858C27.28 53.6258 26.71 53.1158 26.25 52.5558C25.81 51.9758 25.5 51.3758 25.32 50.7558L28.74 49.7058C29 50.4458 29.51 51.0958 30.27 51.6558C31.03 52.2158 31.97 52.5058 33.09 52.5258C34.39 52.5258 35.42 52.2558 36.18 51.7158C36.94 51.1758 37.32 50.4658 37.32 49.5858C37.32 48.7858 37 48.1358 36.36 47.6358C35.72 47.1158 34.86 46.7158 33.78 46.4358L31.2 45.7758C30.22 45.5158 29.33 45.1358 28.53 44.6358C27.75 44.1358 27.13 43.5058 26.67 42.7458C26.23 41.9858 26.01 41.0858 26.01 40.0458C26.01 38.0858 26.65 36.5658 27.93 35.4858C29.21 34.3858 31.04 33.8358 33.42 33.8358C34.76 33.8358 35.93 34.0458 36.93 34.4658C37.95 34.8658 38.79 35.4258 39.45 36.1458C40.11 36.8458 40.6 37.6458 40.92 38.5458L37.56 39.6258C37.26 38.8258 36.74 38.1658 36 37.6458C35.26 37.1258 34.34 36.8658 33.24 36.8658C32.1 36.8658 31.2 37.1358 30.54 37.6758C29.9 38.2158 29.58 38.9658 29.58 39.9258C29.58 40.7058 29.83 41.3158 30.33 41.7558C30.85 42.1758 31.55 42.4958 32.43 42.7158L35.01 43.3458C36.89 43.8058 38.35 44.5958 39.39 45.7158C40.43 46.8358 40.95 48.0758 40.95 49.4358C40.95 50.6358 40.66 51.6958 40.08 52.6158C39.5 53.5358 38.64 54.2558 37.5 54.7758C36.38 55.2958 35.01 55.5558 33.39 55.5558ZM50.1405 55.5558C48.5605 55.5558 47.3505 55.1658 46.5105 54.3858C45.6905 53.5858 45.2805 52.4458 45.2805 50.9658V35.5158H48.6105V50.3358C48.6105 51.0358 48.7705 51.5658 49.0905 51.9258C49.4305 52.2858 49.9205 52.4658 50.5605 52.4658C50.7605 52.4658 50.9805 52.4258 51.2205 52.3458C51.4605 52.2658 51.7305 52.1158 52.0305 51.8958L53.2605 54.4458C52.7405 54.8058 52.2205 55.0758 51.7005 55.2558C51.1805 55.4558 50.6605 55.5558 50.1405 55.5558ZM42.7905 43.0758V40.1958H52.6605V43.0758H42.7905ZM64.8328 55.1958L64.6828 52.3758V47.4858C64.6828 46.4658 64.5728 45.6158 64.3528 44.9358C64.1328 44.2558 63.7828 43.7358 63.3028 43.3758C62.8428 43.0158 62.2328 42.8358 61.4728 42.8358C60.7728 42.8358 60.1528 42.9858 59.6128 43.2858C59.0728 43.5858 58.6228 44.0458 58.2628 44.6658L55.2028 43.5858C55.5428 42.9258 55.9828 42.3058 56.5228 41.7258C57.0628 41.1458 57.7428 40.6858 58.5628 40.3458C59.4028 40.0058 60.3928 39.8358 61.5328 39.8358C62.9928 39.8358 64.2028 40.1058 65.1628 40.6458C66.1428 41.1858 66.8728 41.9858 67.3528 43.0458C67.8328 44.1058 68.0728 45.4158 68.0728 46.9758L67.9828 55.1958H64.8328ZM60.5728 55.5558C58.7728 55.5558 57.3728 55.1558 56.3728 54.3558C55.3928 53.5558 54.9028 52.4258 54.9028 50.9658C54.9028 49.4058 55.4228 48.2158 56.4628 47.3958C57.5228 46.5758 58.9928 46.1658 60.8728 46.1658H64.8928V48.7458H61.9528C60.6128 48.7458 59.6728 48.9358 59.1328 49.3158C58.5928 49.6758 58.3228 50.1958 58.3228 50.8758C58.3228 51.4558 58.5528 51.9158 59.0128 52.2558C59.4928 52.5758 60.1528 52.7358 60.9928 52.7358C61.7328 52.7358 62.3728 52.5658 62.9128 52.2258C63.4728 51.8658 63.9028 51.4058 64.2028 50.8458C64.5228 50.2658 64.6828 49.6458 64.6828 48.9858H65.9128C65.9128 51.0258 65.4728 52.6358 64.5928 53.8158C63.7328 54.9758 62.3928 55.5558 60.5728 55.5558ZM73.6952 47.2158C73.6952 45.5958 74.0052 44.2658 74.6252 43.2258C75.2452 42.1858 76.0452 41.4158 77.0252 40.9158C78.0252 40.3958 79.0652 40.1358 80.1452 40.1358V43.3458C79.2252 43.3458 78.3552 43.4758 77.5352 43.7358C76.7352 43.9758 76.0852 44.3758 75.5852 44.9358C75.0852 45.4958 74.8352 46.2358 74.8352 47.1558L73.6952 47.2158ZM71.4752 55.1958V40.1958H74.8352V55.1958H71.4752ZM88.3437 55.5558C86.7637 55.5558 85.5537 55.1658 84.7137 54.3858C83.8937 53.5858 83.4837 52.4458 83.4837 50.9658V35.5158H86.8137V50.3358C86.8137 51.0358 86.9737 51.5658 87.2937 51.9258C87.6337 52.2858 88.1237 52.4658 88.7637 52.4658C88.9637 52.4658 89.1837 52.4258 89.4237 52.3458C89.6637 52.2658 89.9337 52.1158 90.2337 51.8958L91.4637 54.4458C90.9437 54.8058 90.4237 55.0758 89.9037 55.2558C89.3837 55.4558 88.8637 55.5558 88.3437 55.5558ZM80.9937 43.0758V40.1958H90.8637V43.0758H80.9937ZM102.017 55.1958V34.1958H105.497V55.1958H102.017ZM104.897 46.4358V43.2558H113.687V46.4358H104.897ZM104.897 37.3758V34.1958H115.067V37.3758H104.897ZM119.809 47.2158C119.809 45.5958 120.119 44.2658 120.739 43.2258C121.359 42.1858 122.159 41.4158 123.139 40.9158C124.139 40.3958 125.179 40.1358 126.259 40.1358V43.3458C125.339 43.3458 124.469 43.4758 123.649 43.7358C122.849 43.9758 122.199 44.3758 121.699 44.9358C121.199 45.4958 120.949 46.2358 120.949 47.1558L119.809 47.2158ZM117.589 55.1958V40.1958H120.949V55.1958H117.589ZM135.177 55.5558C133.717 55.5558 132.417 55.2258 131.277 54.5658C130.157 53.8858 129.267 52.9558 128.607 51.7758C127.967 50.5958 127.647 49.2358 127.647 47.6958C127.647 46.1558 127.977 44.7958 128.637 43.6158C129.297 42.4358 130.197 41.5158 131.337 40.8558C132.497 40.1758 133.817 39.8358 135.297 39.8358C136.637 39.8358 137.837 40.1858 138.897 40.8858C139.977 41.5658 140.837 42.5558 141.477 43.8558C142.117 45.1558 142.437 46.7058 142.437 48.5058H139.047C139.047 47.2058 138.887 46.1358 138.567 45.2958C138.267 44.4558 137.827 43.8358 137.247 43.4358C136.687 43.0158 135.997 42.8058 135.177 42.8058C134.317 42.8058 133.577 42.9958 132.957 43.3758C132.337 43.7558 131.867 44.3158 131.547 45.0558C131.227 45.7758 131.067 46.6858 131.067 47.7858C131.067 48.7658 131.257 49.6058 131.637 50.3058C132.037 51.0058 132.567 51.5458 133.227 51.9258C133.907 52.2858 134.657 52.4658 135.477 52.4658C136.377 52.4658 137.117 52.2658 137.697 51.8658C138.277 51.4458 138.727 50.9158 139.047 50.2758L142.137 51.5958C141.717 52.3958 141.177 53.0958 140.517 53.6958C139.877 54.2958 139.107 54.7558 138.207 55.0758C137.327 55.3958 136.317 55.5558 135.177 55.5558ZM129.867 48.5058V45.8358H140.667V48.5058H129.867ZM151.7 55.5558C150.24 55.5558 148.94 55.2258 147.8 54.5658C146.68 53.8858 145.79 52.9558 145.13 51.7758C144.49 50.5958 144.17 49.2358 144.17 47.6958C144.17 46.1558 144.5 44.7958 145.16 43.6158C145.82 42.4358 146.72 41.5158 147.86 40.8558C149.02 40.1758 150.34 39.8358 151.82 39.8358C153.16 39.8358 154.36 40.1858 155.42 40.8858C156.5 41.5658 157.36 42.5558 158 43.8558C158.64 45.1558 158.96 46.7058 158.96 48.5058H155.57C155.57 47.2058 155.41 46.1358 155.09 45.2958C154.79 44.4558 154.35 43.8358 153.77 43.4358C153.21 43.0158 152.52 42.8058 151.7 42.8058C150.84 42.8058 150.1 42.9958 149.48 43.3758C148.86 43.7558 148.39 44.3158 148.07 45.0558C147.75 45.7758 147.59 46.6858 147.59 47.7858C147.59 48.7658 147.78 49.6058 148.16 50.3058C148.56 51.0058 149.09 51.5458 149.75 51.9258C150.43 52.2858 151.18 52.4658 152 52.4658C152.9 52.4658 153.64 52.2658 154.22 51.8658C154.8 51.4458 155.25 50.9158 155.57 50.2758L158.66 51.5958C158.24 52.3958 157.7 53.0958 157.04 53.6958C156.4 54.2958 155.63 54.7558 154.73 55.0758C153.85 55.3958 152.84 55.5558 151.7 55.5558ZM146.39 48.5058V45.8358H157.19V48.5058H146.39ZM30.84 93.1958V73.9358H34.32V93.1958H30.84ZM24.39 75.3758V72.1958H40.77V75.3758H24.39ZM44.0175 85.2158C44.0175 83.5958 44.3275 82.2658 44.9475 81.2258C45.5675 80.1858 46.3675 79.4158 47.3475 78.9158C48.3475 78.3958 49.3875 78.1358 50.4675 78.1358V81.3458C49.5475 81.3458 48.6775 81.4758 47.8575 81.7358C47.0575 81.9758 46.4075 82.3758 45.9075 82.9358C45.4075 83.4958 45.1575 84.2358 45.1575 85.1558L44.0175 85.2158ZM41.7975 93.1958V78.1958H45.1575V93.1958H41.7975ZM52.9059 93.1958L52.9359 78.1958H56.2659L56.2359 93.1958H52.9059ZM54.5859 75.3458C54.0459 75.3458 53.5759 75.1558 53.1759 74.7758C52.7959 74.3758 52.6059 73.9058 52.6059 73.3658C52.6059 72.8258 52.7959 72.3658 53.1759 71.9858C53.5759 71.6058 54.0459 71.4158 54.5859 71.4158C55.1259 71.4158 55.5859 71.6058 55.9659 71.9858C56.3659 72.3658 56.5659 72.8258 56.5659 73.3658C56.5659 73.9058 56.3659 74.3758 55.9659 74.7758C55.5859 75.1558 55.1259 75.3458 54.5859 75.3458ZM69.2859 93.1958L69.1359 90.3758V85.4858C69.1359 84.4658 69.0259 83.6158 68.8059 82.9358C68.5859 82.2558 68.2359 81.7358 67.7559 81.3758C67.2959 81.0158 66.6859 80.8358 65.9259 80.8358C65.2259 80.8358 64.6059 80.9858 64.0659 81.2858C63.5259 81.5858 63.0759 82.0458 62.7159 82.6658L59.6559 81.5858C59.9959 80.9258 60.4359 80.3058 60.9759 79.7258C61.5159 79.1458 62.1959 78.6858 63.0159 78.3458C63.8559 78.0058 64.8459 77.8358 65.9859 77.8358C67.4459 77.8358 68.6559 78.1058 69.6159 78.6458C70.5959 79.1858 71.3259 79.9858 71.8059 81.0458C72.2859 82.1058 72.5259 83.4158 72.5259 84.9758L72.4359 93.1958H69.2859ZM65.0259 93.5558C63.2259 93.5558 61.8259 93.1558 60.8259 92.3558C59.8459 91.5558 59.3559 90.4258 59.3559 88.9658C59.3559 87.4058 59.8759 86.2158 60.9159 85.3958C61.9759 84.5758 63.4459 84.1658 65.3259 84.1658H69.3459V86.7458H66.4059C65.0659 86.7458 64.1259 86.9358 63.5859 87.3158C63.0459 87.6758 62.7759 88.1958 62.7759 88.8758C62.7759 89.4558 63.0059 89.9158 63.4659 90.2558C63.9459 90.5758 64.6059 90.7358 65.4459 90.7358C66.1859 90.7358 66.8259 90.5658 67.3659 90.2258C67.9259 89.8658 68.3559 89.4058 68.6559 88.8458C68.9759 88.2658 69.1359 87.6458 69.1359 86.9858H70.3659C70.3659 89.0258 69.9259 90.6358 69.0459 91.8158C68.1859 92.9758 66.8459 93.5558 65.0259 93.5558ZM75.9284 93.1958V72.1958H79.2884V93.1958H75.9284Z" fill="white"/>
  </g>
  <circle cx="146" cy="146" r="16" fill="white" transform="matrix(0.9999999999999999, 0, 0, 0.9999999999999999, 0, -1.4210854715202004e-14)"/>
  <path d="M 153.108 146.588 C 153.433 146.263 153.433 145.735 153.108 145.41 L 147.805 140.107 C 147.48 139.782 146.952 139.782 146.627 140.107 C 146.301 140.433 146.301 140.96 146.627 141.286 L 151.34 145.999 L 146.627 150.712 C 146.301 151.038 146.301 151.565 146.627 151.891 C 146.952 152.216 147.48 152.216 147.805 151.891 L 153.108 146.588 Z M 139.481 146.832 L 152.518 146.832 L 152.518 145.166 L 139.481 145.166 L 139.481 146.832 Z" fill="#222222" transform="matrix(0.9999999999999999, 0, 0, 0.9999999999999999, 0, -1.4210854715202004e-14)"/>
</svg>